<?xml version="1.0" encoding="UTF-8"?>
<svg id="Layer_2" data-name="Layer 2" xmlns="http://www.w3.org/2000/svg" viewBox="0 0 304.78 285.73">
  <defs>
    <style>
      .cls-1 {
        fill: #fff;
        stroke-width: 0px;
      }
    </style>
  </defs>
  <g id="Layer_1-2" data-name="Layer 1">
    <path class="cls-1" d="M301.04,241.92L174.2,14.07c-2.77-5.84-6.76-9.84-11.99-11.99h-.46c-6.15-2.77-12.15-2.77-17.99,0h-.46c-5.23,2.15-9.38,6-12.45,11.53v.46L4.01,241.92h-.46c-3.07,6.15-4.15,12.45-3.23,18.91.92,6.46,3.54,11.99,7.84,16.6,4.61,5.53,10.45,8.3,17.53,8.3h253.68c6.76,0,12.61-2.61,17.53-7.84h-.46c4.61-4.3,7.38-9.99,8.3-17.07v-.46c.31-6.46-.92-12.61-3.69-18.45ZM168.67,251.6v-.46c-4.31,4.61-9.69,6.92-16.14,6.92s-11.99-2.31-16.6-6.92c-4.3-4.61-6.46-9.99-6.46-16.14,0-6.46,2.15-11.84,6.46-16.14,4.61-4.61,10.15-6.92,16.6-6.92s12.3,2.31,16.6,6.92h-.46c4.61,4.61,6.92,9.99,6.92,16.14,0,6.46-2.31,11.99-6.92,16.6ZM175.59,175.04c0,5.23-1.85,9.69-5.53,13.38-3.69,3.38-8,5.07-12.91,5.07h-9.69l-9.22-2.31-3.69-2.77c-3.38-3.69-5.07-8.15-5.07-13.38v-82.56c0-5.23,1.69-9.69,5.07-13.38l3.69-2.77c2.77-1.85,5.84-2.77,9.22-2.77h9.69c4.92,0,9.22,1.84,12.91,5.53,3.69,3.69,5.53,7.99,5.53,12.91v83.02Z"/>
  </g>
</svg>