<?xml version="1.0" encoding="UTF-8"?>
<svg id="Layer_2" data-name="Layer 2" xmlns="http://www.w3.org/2000/svg" viewBox="0 0 295.65 296.57">
  <defs>
    <style>
      .cls-1 {
        fill: #fff;
        stroke-width: 0px;
      }
    </style>
  </defs>
  <g id="Layer_1-2" data-name="Layer 1">
    <g>
      <path class="cls-1" d="M280.43,207.09l-45.2-45.2-3.23-3.23-2.77-2.77-11.99-12.45c2.77-10.15,4.15-20.91,4.15-32.29,0-31.06-10.76-57.35-32.29-78.87C167.89,10.76,141.75,0,110.7,0S53.96,10.76,31.83,32.29C10.61,54.12,0,80.41,0,111.16s10.61,56.42,31.83,77.95c21.83,21.52,48.12,32.29,78.87,32.29l32.75-4.15,5.07,5.07-3.69-4.15,39.2,39.67v.46l23.06,23.06c8.92,8.3,18.91,13.22,29.98,14.76l6.92.46,7.38-.46c11.07-1.54,20.76-6.61,29.06-15.22,9.84-9.53,14.91-21.22,15.22-35.05v-2.31c-.31-13.84-5.38-25.98-15.22-36.44ZM183.57,111.16c0,19.99-7.07,37.05-21.22,51.2h-.46c-13.84,14.14-30.9,21.22-51.2,21.22h-.92c-19.99-.31-37.05-7.38-51.2-21.22-14.14-14.14-21.22-31.21-21.22-51.2s6.92-37.97,20.76-52.12l.46-.46c14.45-13.84,31.83-20.76,52.12-20.76s37.51,6.92,51.66,20.76v.46c13.84,13.84,20.91,30.75,21.22,50.74v1.38Z"/>
      <rect class="cls-1" x="74.26" y="120.84" width="73.8" height="27.67"/>
      <rect class="cls-1" x="74.26" y="83.94" width="73.8" height="27.67"/>
    </g>
  </g>
</svg>