<?xml version="1.0" encoding="UTF-8"?>
<svg id="Layer_2" data-name="Layer 2" xmlns="http://www.w3.org/2000/svg" viewBox="0 0 258.29 313.64">
  <defs>
    <style>
      .cls-1 {
        fill: #fff;
        stroke-width: 0px;
      }
    </style>
  </defs>
  <g id="Layer_1-2" data-name="Layer 1">
    <path class="cls-1" d="M252.75,152.67c3.69,3.69,5.53,8.15,5.53,13.38v18.45l-129.14,129.14L0,184.49v-18.45c0-5.23,1.69-9.69,5.07-13.38,3.69-3.38,8.15-5.07,13.38-5.07h55.35V18.45c0-5.23,1.69-9.69,5.07-13.38,3.69-3.38,8.15-5.07,13.38-5.07h73.34c5.23,0,9.69,1.69,13.38,5.07,3.69,3.69,5.53,8.15,5.53,13.38v129.14h54.89c5.23,0,9.69,1.69,13.38,5.07"/>
  </g>
</svg>