<?xml version="1.0" encoding="UTF-8"?>
<svg id="Layer_2" data-name="Layer 2" xmlns="http://www.w3.org/2000/svg" viewBox="0 0 285.96 258.29">
  <defs>
    <style>
      .cls-1 {
        fill: #fff;
        stroke-width: 0px;
      }
    </style>
  </defs>
  <g id="Layer_1-2" data-name="Layer 1">
    <g>
      <path class="cls-1" d="M283.2,122.69L190.95,30.44c-1.84-1.85-4-2.77-6.46-2.77h-36.9c-2.46,0-4.61.92-6.46,2.77-1.84,1.84-2.77,4-2.77,6.46v46.12h-64.57c-2.46,0-4.61.92-6.46,2.77-1.84,1.84-2.77,4-2.77,6.46v73.8c0,2.46.92,4.61,2.77,6.46,1.84,1.85,4,2.77,6.46,2.77h64.57v46.12l2.77,6.46,6.46,2.77h36.9l6.46-2.77,92.25-92.25,2.77-6.46-2.77-6.46Z"/>
      <path class="cls-1" d="M36.9,36.9h73.8V0H18.45c-5.23,0-9.69,1.84-13.38,5.53C1.69,9.22,0,13.68,0,18.91v220.93c0,5.23,1.69,9.69,5.07,13.38,3.69,3.38,8.15,5.07,13.38,5.07h92.25v-36.9H36.9V36.9Z"/>
    </g>
  </g>
</svg>