<?xml version="1.0" encoding="UTF-8"?>
<svg id="Layer_2" data-name="Layer 2" xmlns="http://www.w3.org/2000/svg" viewBox="0 0 359.76 340.85">
  <defs>
    <style>
      .cls-1 {
        fill: #fff;
        stroke-width: 0px;
      }
    </style>
  </defs>
  <g id="Layer_1-2" data-name="Layer 1">
    <g>
      <path class="cls-1" d="M356.99,196.02c-1.85-1.85-4-2.77-6.46-2.77h-18.45c-2.46,0-4.61.92-6.46,2.77s-2.77,4-2.77,6.46v46.12h-18.45v-46.12l-2.77-6.46c-1.85-1.85-4-2.77-6.46-2.77h-18.45c-2.46,0-4.61.92-6.46,2.77-1.85,1.85-2.77,4-2.77,6.46v73.8c0,2.46.92,4.61,2.77,6.46,1.85,1.84,4,2.77,6.46,2.77h46.12v46.12c0,2.46.92,4.61,2.77,6.46,1.85,1.84,4,2.77,6.46,2.77h18.45c2.46,0,4.61-.92,6.46-2.77l2.77-6.46v-129.14l-2.77-6.46Z"/>
      <path class="cls-1" d="M320.56,153.13l1.38-11.53-31.36-115.31c-.92-4-3.23-6.92-6.92-8.76l-11.07-1.38-116.23,30.9-9.69-35.98c-1.23-4-3.54-7.07-6.92-9.22l-11.53-1.85-7.38,1.85.46,1.85-2.31,3.69c-2.15,3.38-2.61,7.07-1.38,11.07l9.69,35.98L11.07,85.33c-4,1.23-7.07,3.54-9.22,6.92C0,95.94-.46,99.93.46,104.24l31.36,114.85c.92,4,3.23,6.92,6.92,8.76l11.07,1.38,261.52-69.18,9.22-6.92ZM107.47,183.11l-29.06,7.38-7.84-29.06-29.06,7.84-7.84-28.6,29.06-7.84-7.38-28.6,29.06-7.38,7.38,28.6,28.6-7.84,7.84,28.6-28.6,7.84,7.84,29.06ZM232,114.85l-9.22,6.92-11.07-1.38c-3.69-2.15-6-5.23-6.92-9.22-.92-4-.46-7.69,1.38-11.07,1.84-4,4.77-6.46,8.76-7.38l11.53,1.85c4,1.85,6.46,4.77,7.38,8.76.92,4,.31,7.84-1.85,11.53ZM283.2,101.47l-9.22,6.46-11.53-1.38c-3.69-1.85-6-4.77-6.92-8.76-.92-4-.46-7.84,1.38-11.53,1.84-3.69,4.92-6.15,9.22-7.38,3.69-.92,7.53-.15,11.53,2.31,3.69,1.85,6,4.77,6.92,8.76l-1.38,11.53Z"/>
    </g>
  </g>
</svg>