<?xml version="1.0" encoding="UTF-8"?>
<svg id="Layer_2" data-name="Layer 2" xmlns="http://www.w3.org/2000/svg" viewBox="0 0 350.54 221.39">
  <defs>
    <style>
      .cls-1 {
        fill: #fff;
        stroke-width: 0px;
      }
    </style>
  </defs>
  <g id="Layer_1-2" data-name="Layer 1">
    <g>
      <path class="cls-1" d="M304.41,0H0v221.39h350.54V46.12c0-30.75-15.37-46.12-46.12-46.12ZM136.06,153.13l-19.83-28.6h-13.84v28.6h-20.29V62.73h34.13c14.14,0,24.14,2.46,29.98,7.38,6.15,4.61,9.22,12.15,9.22,22.6,0,14.45-5.69,23.83-17.07,28.13l22.6,32.29h-24.91ZM236.15,153.13h-63.65v-15.22l26.75-26.75,11.07-12.91c2.46-3.38,3.69-6.61,3.69-9.69s-1.08-5.53-3.23-7.38c-1.84-2.15-4.3-3.23-7.38-3.23-5.84,0-11.22,4.15-16.14,12.45l-16.14-9.69c4.3-6.46,8.92-11.38,13.84-14.76,4.92-3.38,11.38-5.07,19.37-5.07s14.45,2.46,20.29,7.38c5.84,4.92,8.76,11.68,8.76,20.29l-3.23,13.38-13.38,16.14-16.14,17.07h35.51v17.99Z"/>
      <path class="cls-1" d="M117.15,80.25h-14.76v26.75h14.76c6.76,0,11.38-1.08,13.84-3.23,2.46-2.46,3.69-6.15,3.69-11.07,0-4.61-1.23-7.84-3.69-9.69l-13.84-2.77Z"/>
    </g>
  </g>
</svg>