<?xml version="1.0" encoding="UTF-8"?>
<svg id="Layer_2" data-name="Layer 2" xmlns="http://www.w3.org/2000/svg" viewBox="0 0 221.39 322.86">
  <defs>
    <style>
      .cls-1 {
        fill: #fff;
        stroke-width: 0px;
      }
    </style>
  </defs>
  <g id="Layer_1-2" data-name="Layer 1">
    <g>
      <path class="cls-1" d="M215.86,33.21c-3.69-3.69-7.99-5.53-12.91-5.53h-46.12v-9.22c0-4.92-1.84-9.22-5.53-12.91-3.69-3.69-7.99-5.53-12.91-5.53h-55.35c-5.23,0-9.69,1.84-13.38,5.53-3.38,3.69-5.07,8.15-5.07,13.38v8.76H18.45c-5.23,0-9.69,1.84-13.38,5.53-3.38,3.69-5.07,8.15-5.07,13.38v53.96h221.39v-54.43c0-4.92-1.84-9.22-5.53-12.91Z"/>
      <path class="cls-1" d="M0,304.41c0,5.23,1.69,9.69,5.07,13.38,3.69,3.38,8.15,5.07,13.38,5.07h184.49c4.92,0,9.22-1.69,12.91-5.07,3.69-3.69,5.53-8.15,5.53-13.38V119H0v185.41Z"/>
    </g>
  </g>
</svg>