<?xml version="1.0" encoding="UTF-8"?>
<svg id="Layer_2" data-name="Layer 2" xmlns="http://www.w3.org/2000/svg" viewBox="0 0 235.9 355.72">
  <defs>
    <style>
      .cls-1 {
        fill: #fff;
        stroke-width: 0px;
      }
    </style>
  </defs>
  <g id="Layer_1-2" data-name="Layer 1">
    <g>
      <path class="cls-1" d="M228.06,76.21l-13.84-52.58c-1.23-4.92-4-8.61-8.3-11.07-4.92-2.77-9.69-3.38-14.3-1.84l-44.74,11.53-2.31-8.76c-1.23-4.92-4-8.46-8.3-10.61-4.61-2.77-9.22-3.54-13.84-2.31l-53.5,14.3c-5.23,1.23-9.07,4.15-11.53,8.76-2.46,4.3-2.92,9.07-1.38,14.3l1.85,8.3-44.74,11.99c-4.92,1.23-8.61,4.3-11.07,9.22-2.15,4-2.61,8.61-1.38,13.84l13.84,52.12,213.55-57.19Z"/>
      <path class="cls-1" d="M14.51,151.85v185.41c0,5.23,1.69,9.69,5.07,13.38,3.69,3.38,8.15,5.07,13.38,5.07h184.49c4.92,0,9.23-1.69,12.92-5.07,3.69-3.69,5.53-8.15,5.53-13.38v-185.41H14.51Z"/>
    </g>
  </g>
</svg>