<?xml version="1.0" encoding="UTF-8"?>
<svg id="Layer_2" data-name="Layer 2" xmlns="http://www.w3.org/2000/svg" viewBox="0 0 295.19 295.19">
  <defs>
    <style>
      .cls-1 {
        fill: #fff;
        stroke-width: 0px;
      }
    </style>
  </defs>
  <g id="Layer_1-2" data-name="Layer 1">
    <path class="cls-1" d="M289.65,190.03c-3.69-3.69-7.99-5.53-12.91-5.53h-92.25v-73.8c10.15,0,18.76-3.54,25.83-10.61,7.38-7.07,11.07-15.84,11.07-26.29v-36.9c0-9.84-3.69-18.45-11.07-25.83-7.07-7.38-15.68-11.07-25.83-11.07h-73.8c-10.15,0-18.91,3.69-26.29,11.07-7.07,7.07-10.61,15.68-10.61,25.83v36.9c0,10.15,3.54,18.91,10.61,26.29,7.07,7.07,15.84,10.61,26.29,10.61v73.8H18.45c-5.23,0-9.69,1.84-13.38,5.53-3.38,3.69-5.07,8.15-5.07,13.38v91.79h295.19v-92.25c0-4.92-1.85-9.22-5.53-12.91ZM258.29,258.29h-36.9v-36.9h36.9v36.9Z"/>
  </g>
</svg>