<?xml version="1.0" encoding="UTF-8"?>
<svg id="Layer_2" data-name="Layer 2" xmlns="http://www.w3.org/2000/svg" viewBox="0 0 166.04 313.64">
  <defs>
    <style>
      .cls-1 {
        fill: #fff;
        stroke-width: 0px;
      }
    </style>
  </defs>
  <g id="Layer_1-2" data-name="Layer 1">
    <g>
      <path class="cls-1" d="M83.02,92.25c12.61,0,23.37-4.46,32.29-13.38v.46c9.22-8.92,13.84-19.99,13.84-33.21,0-12.3-4.61-23.06-13.84-32.29h.46C106.85,4.61,95.94,0,83.02,0s-23.52,4.61-32.75,13.84c-8.92,8.92-13.38,19.68-13.38,32.29s4.46,23.52,13.38,32.75c8.92,8.92,19.83,13.38,32.75,13.38Z"/>
      <path class="cls-1" d="M157.74,266.59c-5.54-5.53-11.99-8.3-19.37-8.3h-9.22v-119.92c0-7.38-2.77-13.84-8.3-19.37-5.54-5.53-11.99-8.3-19.37-8.3H9.22c-2.46,0-4.61.92-6.46,2.77-1.85,1.84-2.77,4-2.77,6.46v36.9c0,2.46.92,4.61,2.77,6.46,1.85,1.85,4,2.77,6.46,2.77h27.67v92.25h-9.22c-7.69,0-14.3,2.77-19.83,8.3v.46c-5.23,5.23-7.84,11.68-7.84,19.37v17.99c0,2.46.92,4.61,2.77,6.46,1.85,1.85,4,2.77,6.46,2.77h147.59l6.46-2.77,2.77-6.46v-18.45c0-7.38-2.77-13.84-8.3-19.37Z"/>
    </g>
  </g>
</svg>