<?xml version="1.0" encoding="UTF-8"?>
<svg id="Layer_2" data-name="Layer 2" xmlns="http://www.w3.org/2000/svg" viewBox="0 0 313.64 331.63">
  <defs>
    <style>
      .cls-1 {
        fill: #fff;
        stroke-width: 0px;
      }
    </style>
  </defs>
  <g id="Layer_1-2" data-name="Layer 1">
    <path class="cls-1" d="M247.68,0c18.14,0,33.67,6.3,46.58,18.91,12.91,12.91,19.37,28.75,19.37,47.51s-6.46,33.67-19.37,46.58c-12.91,12.91-28.44,19.37-46.58,19.37s-34.13-6.46-47.05-19.37l-5.07-5.53-64.57,44.74,1.38,13.38-2.31,17.53,65.03,41.51,5.53-6.46c12.91-12.91,28.6-19.37,47.05-19.37s33.67,6.46,46.58,19.37,19.37,28.6,19.37,47.05-6.46,34.13-19.37,47.05-28.44,19.37-46.58,19.37-34.13-6.46-47.05-19.37c-12.61-12.91-18.91-28.6-18.91-47.05l.92-9.69-69.18-43.82-.92.92c-12.91,12.91-28.44,19.37-46.58,19.37s-34.13-6.46-47.05-19.37C6.3,199.71,0,184.03,0,165.58s6.3-34.13,18.91-47.05c12.91-12.91,28.6-19.37,47.05-19.37s33.67,6.46,46.58,19.37l3.69,3.69,66.42-45.2-.92-10.61c0-18.76,6.3-34.59,18.91-47.51C213.55,6.3,229.23,0,247.68,0"/>
  </g>
</svg>