<?xml version="1.0" encoding="UTF-8"?>
<svg id="Layer_2" data-name="Layer 2" xmlns="http://www.w3.org/2000/svg" viewBox="0 0 295.19 295.19">
  <defs>
    <style>
      .cls-1 {
        fill: #fff;
        stroke-width: 0px;
      }
    </style>
  </defs>
  <g id="Layer_1-2" data-name="Layer 1">
    <path class="cls-1" d="M258.29,110.7V36.9c0-9.84-3.69-18.45-11.07-25.83-7.07-7.38-15.68-11.07-25.83-11.07H73.8c-10.15,0-18.91,3.69-26.29,11.07-7.07,7.07-10.61,15.68-10.61,25.83v73.8H0v166.04c0,5.23,1.69,9.69,5.07,13.38,3.69,3.38,8.15,5.07,13.38,5.07h258.29c4.92,0,9.22-1.69,12.91-5.07,3.69-3.69,5.53-8.15,5.53-13.38V110.7h-36.9ZM184.49,221.39h-18.45v36.9h-36.9v-36.9h-18.45v-36.9h73.8v36.9ZM221.39,110.7H73.8V36.9h147.59v73.8Z"/>
  </g>
</svg>