<?xml version="1.0" encoding="UTF-8"?>
<svg id="Layer_2" data-name="Layer 2" xmlns="http://www.w3.org/2000/svg" viewBox="0 0 295.19 295.19">
  <defs>
    <style>
      .cls-1 {
        fill: #fff;
        stroke-width: 0px;
      }
    </style>
  </defs>
  <g id="Layer_1-2" data-name="Layer 1">
    <g>
      <path class="cls-1" d="M284.12,158.66c3.07,0,5.69-1.08,7.84-3.23,2.15-2.15,3.23-4.77,3.23-7.84,0-20.6-3.69-39.67-11.07-57.19l-6-6c-2.77-1.23-5.54-1.23-8.3,0l-28.6,11.99-10.61-16.14,21.22-21.68,3.23-7.38c0-3.07-1.08-5.69-3.23-7.84l-15.22-13.84c-10.45-7.99-21.37-14.3-32.75-18.91-3.07-1.23-6-1.23-8.76,0-2.77,1.23-4.61,3.23-5.54,6l-11.99,28.6-18.91-3.69V11.07c0-3.07-1.08-5.69-3.23-7.84s-4.77-3.23-7.84-3.23c-20.6,0-39.67,3.69-57.19,11.07-2.77,1.23-4.77,3.23-6,6-1.23,2.77-1.23,5.54,0,8.3l11.99,28.6c-5.53,3.07-10.92,6.76-16.14,11.07l-21.68-21.68c-2.15-2.15-4.77-3.23-7.84-3.23-2.77,0-5.23,1.08-7.38,3.23-14.76,14.45-25.68,30.6-32.75,48.43-1.23,2.77-1.23,5.54,0,8.3l6,6,28.6,11.53-3.69,18.91H11.07c-3.07,0-5.69,1.08-7.84,3.23s-3.23,4.77-3.23,7.84c0,20.6,3.69,39.67,11.07,57.19l6,6c2.77,1.23,5.54,1.23,8.3,0l28.6-11.99,11.07,16.14-21.68,21.68c-2.15,2.15-3.23,4.77-3.23,7.84s1.08,5.69,3.23,7.84c14.45,14.45,30.59,25.21,48.43,32.29,2.77,1.23,5.53,1.23,8.3,0l6-6,11.53-28.13,18.91,3.23v30.44c0,3.07,1.08,5.69,3.23,7.84s4.77,3.23,7.84,3.23c20.6,0,39.67-3.69,57.19-11.07l6-6c1.23-2.77,1.23-5.53,0-8.3l-11.99-28.14,16.14-11.07,21.68,21.68,7.84,2.77,7.38-2.77c14.76-14.76,25.68-30.9,32.75-48.43,1.23-2.77,1.23-5.53,0-8.3l-6-6-28.6-11.99,3.69-18.91h30.44ZM198.33,198.33c-14.14,13.84-31.06,20.76-50.74,20.76s-36.59-6.92-50.74-20.76c-13.84-14.14-20.76-31.06-20.76-50.74s6.92-36.59,20.76-50.74c14.14-13.84,31.06-20.76,50.74-20.76s36.59,6.92,50.74,20.76c13.84,14.14,20.76,31.06,20.76,50.74s-6.92,36.59-20.76,50.74Z"/>
      <path class="cls-1" d="M147.59,112.08c-9.84,0-18.3,3.38-25.37,10.15-6.76,7.07-10.15,15.53-10.15,25.37s3.38,18.3,10.15,25.37c7.07,7.07,15.53,10.61,25.37,10.61s18.3-3.54,25.37-10.61c7.07-7.07,10.61-15.53,10.61-25.37s-3.54-18.3-10.61-25.37c-7.07-6.76-15.53-10.15-25.37-10.15Z"/>
    </g>
  </g>
</svg>