<?xml version="1.0" encoding="UTF-8"?>
<svg id="Layer_2" data-name="Layer 2" xmlns="http://www.w3.org/2000/svg" viewBox="0 0 295.19 295.19">
  <defs>
    <style>
      .cls-1 {
        fill: #fff;
        stroke-width: 0px;
      }
    </style>
  </defs>
  <g id="Layer_1-2" data-name="Layer 1">
    <g>
      <polygon class="cls-1" points="110.7 184.49 184.49 184.49 184.49 110.7 221.39 110.7 221.39 73.8 147.59 0 73.8 73.8 73.8 110.7 110.7 110.7 110.7 184.49"/>
      <path class="cls-1" d="M289.65,153.13c-3.69-3.69-7.99-5.53-12.91-5.53h-36.9c-5.23,0-9.69,1.84-13.38,5.53-3.38,3.69-5.07,8.15-5.07,13.38v54.89H73.8v-55.35c0-4.92-1.84-9.22-5.53-12.91-3.69-3.69-8-5.53-12.92-5.53H18.45c-5.23,0-9.69,1.84-13.38,5.53-3.38,3.69-5.07,8.15-5.07,13.38v110.23c0,5.23,1.69,9.69,5.07,13.38,3.69,3.38,8.15,5.07,13.38,5.07h258.29c4.92,0,9.22-1.69,12.91-5.07,3.69-3.69,5.53-8.15,5.53-13.38v-110.7c0-4.92-1.85-9.22-5.53-12.91Z"/>
    </g>
  </g>
</svg>