<?xml version="1.0" encoding="UTF-8"?>
<svg id="Layer_2" data-name="Layer 2" xmlns="http://www.w3.org/2000/svg" viewBox="0 0 267.51 267.51">
  <defs>
    <style>
      .cls-1 {
        fill: #fff;
        stroke-width: 0px;
      }
    </style>
  </defs>
  <g id="Layer_1-2" data-name="Layer 1">
    <g>
      <path class="cls-1" d="M184.49,230.62H36.9V83.02h36.9v-36.9H18.45c-5.23,0-9.69,1.84-13.38,5.53-3.38,3.69-5.07,8.15-5.07,13.38v184.03c0,5.23,1.69,9.69,5.07,13.38,3.69,3.38,8.15,5.07,13.38,5.07h184.49c4.92,0,9.22-1.69,12.91-5.07h.46c3.38-3.69,5.07-8.15,5.07-13.38v-55.35h-36.9v36.9Z"/>
      <path class="cls-1" d="M264.75,2.77c-1.84-1.84-4-2.77-6.46-2.77H110.7c-2.46,0-4.61.92-6.46,2.77-1.84,1.85-2.77,4-2.77,6.46s.92,4.61,2.77,6.46l30.44,30.44-67.34,67.34c-1.84,1.85-2.77,4-2.77,6.46s.92,4.61,2.77,6.46l73.8,73.8,6.46,2.77,6.46-2.77,67.34-67.34,30.44,30.44,6.46,2.77,6.46-2.77,2.77-6.46V9.22l-2.77-6.46Z"/>
    </g>
  </g>
</svg>