<?xml version="1.0" encoding="UTF-8"?>
<svg id="Layer_2" data-name="Layer 2" xmlns="http://www.w3.org/2000/svg" viewBox="0 0 350.54 221.39">
  <defs>
    <style>
      .cls-1 {
        fill: #fff;
        stroke-width: 0px;
      }
    </style>
  </defs>
  <g id="Layer_1-2" data-name="Layer 1">
    <g>
      <path class="cls-1" d="M304.41,0H0v221.39h350.54V46.12c0-30.75-15.37-46.12-46.12-46.12ZM148.98,153.13l-19.83-28.6h-13.84v28.6h-20.29V62.73h34.13c14.14,0,24.14,2.46,29.98,7.38,6.15,4.61,9.22,12.15,9.22,22.6,0,14.45-5.69,23.83-17.07,28.13l22.6,32.29h-24.91ZM218.62,153.13h-19.37v-72.87h-17.07v-17.53h36.44v90.4Z"/>
      <path class="cls-1" d="M130.07,80.25h-14.76v26.75h14.76l13.84-3.23c2.46-2.46,3.69-6.15,3.69-11.07,0-4.61-1.23-7.84-3.69-9.69-2.46-1.85-7.07-2.77-13.84-2.77Z"/>
    </g>
  </g>
</svg>