<?xml version="1.0" encoding="UTF-8"?>
<svg id="Layer_2" data-name="Layer 2" xmlns="http://www.w3.org/2000/svg" viewBox="0 0 258.29 258.29">
  <defs>
    <style>
      .cls-1 {
        fill: #fff;
        stroke-width: 0px;
      }
    </style>
  </defs>
  <g id="Layer_1-2" data-name="Layer 1">
    <path class="cls-1" d="M58.58,6c3.69-3.69,8.15-5.69,13.38-6,5.23,0,9.69,1.84,13.38,5.53l92.71,93.17,39.67-39.67c3.69-3.69,8.15-5.69,13.38-6,5.53.31,10.15,2.31,13.84,6l13.38,13.38v185.88H71.95l-12.91-13.38c-3.69-3.69-5.69-8.15-6-13.38.31-5.23,2.31-9.84,6-13.84l39.67-39.67L6,84.87c-3.69-3.69-5.69-7.84-6-12.45.31-5.53,2.31-10.15,6-13.84L58.58,6"/>
  </g>
</svg>