<?xml version="1.0" encoding="UTF-8"?>
<svg id="Layer_2" data-name="Layer 2" xmlns="http://www.w3.org/2000/svg" viewBox="0 0 258.29 258.29">
  <defs>
    <style>
      .cls-1 {
        fill: #fff;
        stroke-width: 0px;
      }
    </style>
  </defs>
  <g id="Layer_1-2" data-name="Layer 1">
    <path class="cls-1" d="M231.08,205.25c-5.23-.31-9.69-2.46-13.38-6.46l-40.13-39.67-92.71,92.71c-3.69,4-7.99,6.15-12.91,6.46-5.23-.31-9.69-2.46-13.38-6.46L6,199.25c-3.69-3.69-5.69-8.15-6-13.38,0-4.92,1.84-9.38,5.53-13.38l92.71-92.71-39.2-39.67c-3.69-3.69-5.69-8.15-6-13.38.31-5.53,2.31-10.15,6-13.84L71.95,0h186.34v185.88l-13.38,12.91c-3.69,4-8.3,6.15-13.84,6.46"/>
  </g>
</svg>