<?xml version="1.0" encoding="UTF-8"?>
<svg id="Layer_2" data-name="Layer 2" xmlns="http://www.w3.org/2000/svg" viewBox="0 0 377.75 258.29">
  <defs>
    <style>
      .cls-1 {
        fill: #fff;
        stroke-width: 0px;
      }
    </style>
  </defs>
  <g id="Layer_1-2" data-name="Layer 1">
    <g>
      <path class="cls-1" d="M354.23,102.85c-7.99-8.3-16.76-14.45-26.29-18.45,8.3-8.61,12.45-18.76,12.45-30.44,0-11.99-4.15-22.29-12.45-30.9-8.61-8.61-18.91-12.91-30.9-12.91s-21.83,4.3-30.44,12.91l-3.69,4.61c3.69,9.53,5.53,19.99,5.53,31.36,0,8.3-1.23,16.45-3.69,24.45l1.38.92-1.84.92-2.77,6.46,18.91,15.68v.46c25.52,25.52,38.28,56.42,38.28,92.71v1.84c13.22-1.84,25.06-5.69,35.52-11.53,15.68-7.99,23.52-17.99,23.52-29.98v-.46c0-22.45-7.84-41.66-23.52-57.65Z"/>
      <path class="cls-1" d="M238.92,103.32l-8.3-4.15c10.76-11.07,16.14-24.45,16.14-40.13s-5.54-30.13-16.6-41.51C218.78,5.84,205.09,0,189.1,0s-29.52,5.84-40.59,17.53c-11.38,11.38-17.07,25.21-17.07,41.51s5.38,29.06,16.14,40.13l-8.76,4.15c-9.22,5.23-17.99,11.84-26.29,19.83-20.91,21.52-31.36,47.35-31.36,77.49v3.23c1.23,14.76,11.68,27.37,31.36,37.82,21.22,11.07,46.74,16.6,76.56,16.6s55.19-5.53,76.1-16.6c19.99-10.45,30.59-23.06,31.82-37.82v-3.23c0-30.13-10.61-55.96-31.82-77.49-8-7.99-16.76-14.61-26.29-19.83Z"/>
      <path class="cls-1" d="M97.78,107.47c5.84-5.84,12.15-11.07,18.91-15.68l-2.31-6-2.31-1.38,1.38-1.38c-2.46-7.69-3.69-15.68-3.69-23.98,0-11.38,2-21.83,6-31.36l-3.69-4.61c-8.61-8.61-18.91-12.91-30.9-12.91s-22.29,4.3-30.9,12.91c-8.3,8.61-12.45,18.91-12.45,30.9,0,11.68,4.15,21.83,12.45,30.44-9.84,4-18.6,10.15-26.29,18.45C8,118.84,0,138.06,0,160.51v.46c.31,11.99,8.3,21.99,23.98,29.98,10.45,5.84,22.29,9.69,35.52,11.53v-1.84c0-36.28,12.76-67.19,38.28-92.71v-.46Z"/>
    </g>
  </g>
</svg>