<?xml version="1.0" encoding="UTF-8"?>
<svg id="Layer_2" data-name="Layer 2" xmlns="http://www.w3.org/2000/svg" viewBox="0 0 258.29 258.29">
  <defs>
    <style>
      .cls-1 {
        fill: #fff;
        stroke-width: 0px;
      }
    </style>
  </defs>
  <g id="Layer_1-2" data-name="Layer 1">
    <path class="cls-1" d="M258.29,72.41c0,4.92-2,9.22-6,12.91l-92.71,93.17,39.2,39.67c3.69,3.69,5.69,8.15,6,13.38-.31,5.23-2.31,9.84-6,13.84l-12.91,12.91H0V72.41l12.91-13.38c3.69-3.69,8.3-5.69,13.84-6,5.23.31,9.69,2.31,13.38,6l40.13,40.13L172.96,6c3.69-3.69,7.99-5.69,12.91-6,5.23.31,9.69,2.31,13.38,6l52.58,52.58c3.69,4,5.84,8.61,6.46,13.84"/>
  </g>
</svg>