<?xml version="1.0" encoding="UTF-8"?>
<svg id="Layer_2" data-name="Layer 2" xmlns="http://www.w3.org/2000/svg" viewBox="0 0 295.19 293.34">
  <defs>
    <style>
      .cls-1 {
        fill: #fff;
        stroke-width: 0px;
      }
    </style>
  </defs>
  <g id="Layer_1-2" data-name="Layer 1">
    <path class="cls-1" d="M294.73,225.08c-1.23-13.53-7.07-24.91-17.53-34.13l-82.56-81.64.92-10.61v-14.76c-2.77-22.45-12.61-41.36-29.52-56.73h.46c-14.45-14.76-31.21-23.83-50.27-27.21l-43.82,1.38h-.46c-3.69,1.23-7.53,2.92-11.53,5.07-1.54.62-2.61,1.69-3.23,3.23-.92,1.23-1.08,2.77-.46,4.61l1.84,3.69,52.58,50.27,4.15,6.46c2.15,4.92.92,9.53-3.69,13.84l-22.14,23.06v.46l-9.22,5.07-10.15-5.53L17.53,59.04l-3.69-2.31-4.61.92c-1.54.92-2.61,2.31-3.23,4.15-3.38,8.92-5.23,17.83-5.54,26.75-2.77,27.67,6.76,52.89,28.6,75.64v.46c15.07,14.45,33.36,23.37,54.89,26.75l-.92-.46,24.45,1.38,27.21,25.83,1.38,3.69,54.89,54.42v.46c12.3,11.07,26.6,16.6,42.89,16.6,18.14,0,32.59-5.54,43.36-16.6l.46-.46c11.68-11.38,17.53-25.68,17.53-42.89l-.46-8.3ZM250.45,249.99c-4,3.69-8.92,5.53-14.76,5.53-5.53,0-10.61-1.85-15.22-5.53-3.69-4.61-5.54-9.53-5.54-14.76l.92-5.53.46-.92,4.15-7.84v-.46c10.15-8.3,20.14-8.3,29.98,0l.46.46,5.53,8.3.92,6c0,5.23-2.31,10.15-6.92,14.76Z"/>
  </g>
</svg>