<?xml version="1.0" encoding="UTF-8"?>
<svg id="Layer_2" data-name="Layer 2" xmlns="http://www.w3.org/2000/svg" viewBox="0 0 258.29 295.19">
  <defs>
    <style>
      .cls-1 {
        fill: #fff;
        stroke-width: 0px;
      }
    </style>
  </defs>
  <g id="Layer_1-2" data-name="Layer 1">
    <g>
      <path class="cls-1" d="M252.75,5.53c-3.69-3.69-7.99-5.53-12.91-5.53h-73.8c-5.23,0-9.69,1.85-13.38,5.53-3.38,3.69-5.07,8.15-5.07,13.38v257.83c0,5.23,1.69,9.69,5.07,13.38,3.69,3.38,8.15,5.07,13.38,5.07h73.8c4.92,0,9.22-1.69,12.91-5.07,3.69-3.69,5.54-8.15,5.54-13.38V18.45c0-4.92-1.84-9.22-5.54-12.91Z"/>
      <path class="cls-1" d="M92.25,0H18.45c-5.23,0-9.69,1.85-13.38,5.53C1.69,9.22,0,13.68,0,18.91v257.83c0,5.23,1.69,9.69,5.07,13.38,3.69,3.38,8.15,5.07,13.38,5.07h73.8c4.92,0,9.22-1.69,12.91-5.07,3.69-3.69,5.54-8.15,5.54-13.38V18.45c0-4.92-1.84-9.22-5.54-12.91-3.69-3.69-7.99-5.53-12.91-5.53Z"/>
    </g>
  </g>
</svg>