<?xml version="1.0" encoding="UTF-8"?>
<svg id="Layer_2" data-name="Layer 2" xmlns="http://www.w3.org/2000/svg" viewBox="0 0 276.23 285.81">
  <defs>
    <style>
      .cls-1 {
        fill: #fff;
        stroke-width: 0px;
      }
    </style>
  </defs>
  <g id="Layer_1-2" data-name="Layer 1">
    <g>
      <path class="cls-1" d="M202.9,73.81v46.12h-12.45l-6.92,1.84,62.73,62.73,2.77-15.22V26.77C249.02,8.93,239.79.01,221.34.01h-124.99c-11.07-.31-17.99,4.3-20.76,13.84l59.96,59.96h67.34Z"/>
      <path class="cls-1" d="M270.7,235.7L58.53,23.54c-3.38-3.69-7.69-5.53-12.91-5.53s-9.69,1.85-13.38,5.53c-3.38,3.38-5.07,7.69-5.07,12.91s1.69,9.69,5.07,13.38l212.17,212.17c3.69,3.38,8.15,5.07,13.38,5.07s9.53-1.69,12.91-5.07c3.69-3.69,5.53-8.15,5.53-13.38s-1.84-9.53-5.53-12.91Z"/>
      <path class="cls-1" d="M110.65,154.07l-36.9-36.9v58.12l-20.76-.92h-.46c-11.99,2.46-23.06,8.61-33.21,18.45l-.92.46C7.64,204.65,1.65,218.02.42,233.4c-1.84,15.68,2.46,28.6,12.91,38.74,10.15,10.45,23.22,14.91,39.2,13.38h.46c14.45-1.54,27.21-7.69,38.28-18.45l.46-1.38c13.22-11.68,19.53-23.37,18.91-35.05v-76.56Z"/>
      <path class="cls-1" d="M150.78,216.79c9.84,10.45,22.29,15.37,37.36,14.76l-50.27-50.27c-.62,14.76,3.69,26.6,12.91,35.51Z"/>
    </g>
  </g>
</svg>