<?xml version="1.0" encoding="UTF-8"?>
<svg id="Layer_2" data-name="Layer 2" xmlns="http://www.w3.org/2000/svg" viewBox="0 0 295.19 295.19">
  <defs>
    <style>
      .cls-1 {
        fill: #fff;
        stroke-width: 0px;
      }
    </style>
  </defs>
  <g id="Layer_1-2" data-name="Layer 1">
    <path class="cls-1" d="M251.83,43.36C225.08,16.6,193.41,2.31,156.82.46l-9.22-.46c-40.59,0-75.33,14.3-104.24,42.89v.46h-.46C14.3,72.26,0,107.01,0,147.59s14.45,75.8,43.36,104.7c28.9,28.6,63.65,42.89,104.24,42.89h9.22c36.59-2.15,68.26-16.45,95.01-42.89,28.9-28.9,43.36-63.8,43.36-104.7s-14.45-75.33-43.36-104.24ZM213.55,213.09h-.46c-15.99,15.99-34.75,24.91-56.27,26.75l-9.22.46V55.35l9.22.46c21.52,1.84,40.43,10.61,56.73,26.29,17.83,18.14,26.75,39.97,26.75,65.49s-8.92,47.66-26.75,65.5Z"/>
  </g>
</svg>