<?xml version="1.0" encoding="UTF-8"?>
<svg id="Layer_2" data-name="Layer 2" xmlns="http://www.w3.org/2000/svg" viewBox="0 0 350.54 221.39">
  <defs>
    <style>
      .cls-1 {
        fill: #fff;
        stroke-width: 0px;
      }
    </style>
  </defs>
  <g id="Layer_1-2" data-name="Layer 1">
    <path class="cls-1" d="M46.12,0C15.37,0,0,15.37,0,46.12v175.27h350.54V0H46.12ZM160.05,153.13h-58.58V62.73h20.29v72.41h38.28v17.99ZM234.77,153.13h-63.65v-15.22l26.75-26.75,11.07-12.91c2.46-3.38,3.69-6.61,3.69-9.69s-1.08-5.53-3.23-7.38c-1.85-2.15-4.31-3.23-7.38-3.23-5.84,0-11.22,4.15-16.14,12.45l-16.14-9.69c4.3-6.46,8.92-11.38,13.84-14.76,4.92-3.38,11.38-5.07,19.37-5.07s14.45,2.46,20.29,7.38c5.84,4.92,8.76,11.68,8.76,20.29l-3.23,13.38-13.38,16.14-16.14,17.07h35.52v17.99Z"/>
  </g>
</svg>