<?xml version="1.0" encoding="UTF-8"?>
<svg id="Layer_2" data-name="Layer 2" xmlns="http://www.w3.org/2000/svg" viewBox="0 0 306.26 309.95">
  <defs>
    <style>
      .cls-1 {
        fill: #fff;
        stroke-width: 0px;
      }
    </style>
  </defs>
  <g id="Layer_1-2" data-name="Layer 1">
    <g>
      <path class="cls-1" d="M261.52,48.43v-.46l-7.84-6.92-6.46-1.84c-2.77,0-4.92,1.08-6.46,3.23l-23.98,28.14c-1.54,1.84-2.31,4-2.31,6.46l3.23,6.46,4.15,4.15h.46c19.06,19.06,28.6,42.13,28.6,69.18s-9.07,49.04-27.21,67.8l-1.38,1.38-1.38,1.38c-18.76,18.14-41.36,27.21-67.8,27.21-27.06,0-50.12-9.53-69.18-28.6s-28.6-42.13-28.6-69.18,9.07-49.2,27.21-68.26l1.38-1.38,3.69-3.23,3.23-6.46-2.31-6.46-23.52-28.14c-1.54-2.15-3.54-3.23-6-3.23-2.77-.31-5.07.31-6.92,1.84l-7.38,6.46-1.85,2.31C14.3,79.79,0,115.31,0,156.82s14.91,78.56,44.74,108.39c29.83,29.83,65.96,44.74,108.39,44.74,42.43,0,78.41-14.91,107.93-44.74l.46-.46c29.83-29.52,44.74-65.49,44.74-107.93s-14.91-78.56-44.74-108.39Z"/>
      <path class="cls-1" d="M134.22,175.27h36.9l6.46-2.77,2.77-6.46V9.22l-2.77-6.46c-1.85-1.85-4-2.77-6.46-2.77h-36.9c-2.46,0-4.61.92-6.46,2.77-1.84,1.84-2.77,4-2.77,6.46v156.82c0,2.46.92,4.61,2.77,6.46l6.46,2.77Z"/>
    </g>
  </g>
</svg>