<?xml version="1.0" encoding="UTF-8"?>
<svg id="Layer_2" data-name="Layer 2" xmlns="http://www.w3.org/2000/svg" viewBox="0 0 295.19 258.29">
  <defs>
    <style>
      .cls-1 {
        fill: #fff;
        stroke-width: 0px;
      }
    </style>
  </defs>
  <g id="Layer_1-2" data-name="Layer 1">
    <path class="cls-1" d="M289.65,42.43c-3.69-3.69-7.99-5.53-12.91-5.53h-36.9V0H55.35v36.9H18.45c-5.23,0-9.69,1.85-13.38,5.53-3.38,3.69-5.07,8.15-5.07,13.38v91.79c0,10.15,3.54,18.91,10.61,26.29,7.07,7.07,15.84,10.61,26.29,10.61h73.8v36.9h-55.35c-5.23,0-9.69,1.84-13.38,5.53-3.38,3.69-5.07,8.15-5.07,13.38v17.99h221.39v-18.45c0-4.92-1.84-9.22-5.53-12.91-3.69-3.69-7.99-5.53-12.91-5.53h-55.35v-36.9h73.8c10.15,0,18.76-3.54,25.83-10.61,7.38-7.07,11.07-15.84,11.07-26.29V55.35c0-4.92-1.84-9.22-5.53-12.91ZM55.35,147.59h-18.45v-73.8h18.45v73.8ZM258.29,147.59h-18.45v-73.8h18.45v73.8Z"/>
  </g>
</svg>