<?xml version="1.0" encoding="UTF-8"?>
<svg id="Layer_2" data-name="Layer 2" xmlns="http://www.w3.org/2000/svg" viewBox="0 0 313.64 258.29">
  <defs>
    <style>
      .cls-1 {
        fill: #fff;
        stroke-width: 0px;
      }
    </style>
  </defs>
  <g id="Layer_1-2" data-name="Layer 1">
    <path class="cls-1" d="M295.19,73.8c5.23,0,9.69,1.84,13.38,5.53,3.38,3.69,5.07,8.15,5.07,13.38v73.34c0,5.23-1.69,9.69-5.07,13.38-3.69,3.38-8.15,5.07-13.38,5.07h-129.14v55.35c0,5.23-1.69,9.69-5.07,13.38-3.69,3.38-8.15,5.07-13.38,5.07h-18.45L0,129.14,129.14,0h18.45c5.23,0,9.69,1.84,13.38,5.53,3.38,3.69,5.07,8.15,5.07,13.38v54.89h129.14"/>
  </g>
</svg>