<?xml version="1.0" encoding="UTF-8"?>
<svg id="Layer_2" data-name="Layer 2" xmlns="http://www.w3.org/2000/svg" viewBox="0 0 184.49 193.72">
  <defs>
    <style>
      .cls-1 {
        fill: #fff;
        stroke-width: 0px;
      }
    </style>
  </defs>
  <g id="Layer_1-2" data-name="Layer 1">
    <path class="cls-1" d="M77.03,100.09c-2.15,1.84-4.77,2.77-7.84,2.77H10.61l-5.53-1.84-4.15-4.15-.92-6.92C2.46,61.65,12.45,39.67,29.98,23.98,47.2,7.99,68.88,0,95.01,0s47.51,7.07,64.11,21.22c16.91,15.07,25.37,35.67,25.37,61.8,0,12.61-1.69,21.83-5.07,27.67l-5.07,9.69h.46l-8.3,12.45-.46.46-7.38,8.3v.46l-17.07,16.6-6.92,7.84h-2.77v.46h2.77l-1.85,2.31-.92,7.84v6.46l-3.23,7.38-8.3,2.77h-56.27l-7.84-2.77c-2.15-2.15-3.38-4.61-3.69-7.38v-25.83h1.38c.61-5.53,1.85-9.99,3.69-13.38,2.77-5.84,8.92-13.84,18.45-23.98l24.91-24.91,2.31-10.15-3.23-10.15c-1.54-2.15-3.69-3.07-6.46-2.77-2.77,0-5.23,1.23-7.38,3.69v-.46c-2.77,4.3-4.46,9.99-5.07,17.07l-4.15,7.38"/>
  </g>
</svg>