<?xml version="1.0" encoding="UTF-8"?>
<svg id="Layer_2" data-name="Layer 2" xmlns="http://www.w3.org/2000/svg" viewBox="0 0 322.86 221.39">
  <defs>
    <style>
      .cls-1 {
        fill: #fff;
        stroke-width: 0px;
      }
    </style>
  </defs>
  <g id="Layer_1-2" data-name="Layer 1">
    <g>
      <path class="cls-1" d="M295.65,105.62c-9.22-9.22-19.37-16.14-30.44-20.76,9.53-9.53,14.3-21.06,14.3-34.59s-4.77-25.98-14.3-35.51c-9.84-9.84-21.68-14.76-35.51-14.76s-25.21,4.92-35.05,14.76c-9.84,9.53-14.76,21.37-14.76,35.51s4.77,25.06,14.3,34.59c-6.76,2.77-13.07,6.3-18.91,10.61,19.68,21.52,29.52,47.05,29.52,76.56,1.23,16.6-6.3,30.9-22.6,42.89l47.51,6.46c25.83,0,47.81-4.77,65.96-14.3,18.14-9.53,27.21-21.22,27.21-35.05,0-26.14-9.07-48.28-27.21-66.42Z"/>
      <path class="cls-1" d="M161.43,107.93l-2.31-2.31c-9.22-9.22-19.37-16.14-30.44-20.76,9.53-9.53,14.3-21.06,14.3-34.59s-4.77-25.98-14.3-35.51C118.84,4.92,107.01,0,93.17,0s-25.52,4.92-35.05,14.76c-9.84,9.53-14.76,21.37-14.76,35.51s4.61,25.06,13.84,34.59c-10.76,4.61-20.76,11.53-29.98,20.76C9.07,123.76,0,145.9,0,172.04c.31,13.84,9.38,25.52,27.21,35.05,18.14,9.53,40.13,14.3,65.96,14.3s47.81-4.77,65.96-14.3l2.31-1.38c16.6-9.22,24.91-20.45,24.91-33.67,0-24.91-8.3-46.28-24.91-64.11Z"/>
    </g>
  </g>
</svg>