<?xml version="1.0" encoding="UTF-8"?>
<svg id="Layer_2" data-name="Layer 2" xmlns="http://www.w3.org/2000/svg" viewBox="0 0 301.93 277.2">
  <defs>
    <style>
      .cls-1 {
        fill: #fff;
        stroke-width: 0px;
      }
    </style>
  </defs>
  <g id="Layer_1-2" data-name="Layer 1">
    <g>
      <path class="cls-1" d="M293.34,11.53l-.46-.46c-6.76-7.07-15.22-10.61-25.37-10.61H122.23l-2.77-.46H9.22c-2.46,0-4.61.92-6.46,2.77C.92,4.61,0,6.76,0,9.22v27.67c0,2.46.92,4.61,2.77,6.46s4,2.77,6.46,2.77h41.97l21.22,114.85v.46c1.23,7.38,6,13.68,14.3,18.91h.46c4.92,3.07,11.22,4.61,18.91,4.61h138.37l18.45-4.15,1.38-.46c7.99-5.23,12.61-11.53,13.84-18.91l.46-.46,23.06-122.23v-.92c1.23-10.15-1.54-18.91-8.3-26.29Z"/>
      <path class="cls-1" d="M110.7,203.4c-10.15,0-18.91,3.54-26.29,10.61-7.07,7.38-10.61,16.14-10.61,26.29s3.54,18.76,10.61,25.83c7.38,7.38,16.14,11.07,26.29,11.07s18.76-3.69,25.83-11.07c7.38-7.07,11.07-15.68,11.07-25.83s-3.69-18.91-11.07-26.29c-7.07-7.07-15.68-10.61-25.83-10.61Z"/>
      <path class="cls-1" d="M239.84,203.4c-10.15,0-18.91,3.54-26.29,10.61-7.07,7.38-10.61,16.14-10.61,26.29s3.54,18.76,10.61,25.83c7.38,7.38,16.14,11.07,26.29,11.07s18.76-3.69,25.83-11.07c7.38-7.07,11.07-15.68,11.07-25.83s-3.69-18.91-11.07-26.29c-7.07-7.07-15.68-10.61-25.83-10.61Z"/>
    </g>
  </g>
</svg>