<?xml version="1.0" encoding="UTF-8"?>
<svg id="Layer_2" data-name="Layer 2" xmlns="http://www.w3.org/2000/svg" viewBox="0 0 239.84 276.74">
  <defs>
    <style>
      .cls-1 {
        fill: #fff;
        stroke-width: 0px;
      }
    </style>
  </defs>
  <g id="Layer_1-2" data-name="Layer 1">
    <g>
      <path class="cls-1" d="M9.22,129.14h221.39l6.46-2.77,2.77-6.46-2.77-6.46L126.38,2.77c-1.84-1.85-4-2.77-6.46-2.77s-4.61.92-6.46,2.77L2.77,113.46c-1.85,1.85-2.77,4-2.77,6.46s.92,4.61,2.77,6.46l6.46,2.77Z"/>
      <path class="cls-1" d="M230.62,147.59H9.22c-2.46,0-4.61.92-6.46,2.77s-2.77,4-2.77,6.46.92,4.61,2.77,6.46l110.7,110.7,6.46,2.77,6.46-2.77,110.7-110.7,2.77-6.46-2.77-6.46c-1.84-1.85-4-2.77-6.46-2.77Z"/>
    </g>
  </g>
</svg>