<?xml version="1.0" encoding="UTF-8"?>
<svg id="Layer_2" data-name="Layer 2" xmlns="http://www.w3.org/2000/svg" viewBox="0 0 249.02 285.83">
  <defs>
    <style>
      .cls-1 {
        fill: #fff;
        stroke-width: 0px;
      }
    </style>
  </defs>
  <g id="Layer_1-2" data-name="Layer 1">
    <path class="cls-1" d="M249.02,26.78v142.52c-1.84,16.91-7.99,30.75-18.45,41.51h-.92c-11.07,12.3-24.14,19.06-39.2,20.29h-.46c-15.68,1.54-28.75-3.23-39.2-14.3-10.15-9.84-14.45-23.06-12.91-39.67,1.54-14.76,7.69-27.67,18.45-38.74,10.45-10.45,21.83-16.6,34.13-18.45h12.45v-46.12h-92.25v156.82c.61,11.68-5.69,23.37-18.91,35.05l-.46,1.38c-11.07,10.76-23.83,16.91-38.28,18.45h-.46c-15.99,1.54-29.06-2.92-39.2-13.38-10.45-10.15-14.76-23.06-12.91-38.74,1.23-15.37,7.23-28.75,17.99-40.13l.92-.46c10.15-9.84,21.22-15.99,33.21-18.45h.46l20.76.92V27.7C73.14,8.64,80.67-.59,96.35.03h124.99c18.45,0,27.67,8.92,27.67,26.75"/>
  </g>
</svg>