<?xml version="1.0" encoding="UTF-8"?>
<svg id="Layer_2" data-name="Layer 2" xmlns="http://www.w3.org/2000/svg" viewBox="0 0 258.29 313.64">
  <defs>
    <style>
      .cls-1 {
        fill: #fff;
        stroke-width: 0px;
      }
    </style>
  </defs>
  <g id="Layer_1-2" data-name="Layer 1">
    <path class="cls-1" d="M258.29,129.14v18.45c0,5.23-1.84,9.69-5.53,13.38-3.69,3.38-8.15,5.07-13.38,5.07h-54.89v129.14c0,5.23-1.84,9.69-5.53,13.38-3.69,3.38-8.15,5.07-13.38,5.07h-73.34c-5.23,0-9.69-1.69-13.38-5.07-3.38-3.69-5.07-8.15-5.07-13.38v-129.14H18.45c-5.23,0-9.69-1.69-13.38-5.07-3.38-3.69-5.07-8.15-5.07-13.38v-18.45L129.14,0l129.14,129.14"/>
  </g>
</svg>