<?xml version="1.0" encoding="UTF-8"?>
<svg id="Layer_2" data-name="Layer 2" xmlns="http://www.w3.org/2000/svg" viewBox="0 0 295.19 295.19">
  <defs>
    <style>
      .cls-1 {
        fill: #fff;
        stroke-width: 0px;
      }
    </style>
  </defs>
  <g id="Layer_1-2" data-name="Layer 1">
    <path class="cls-1" d="M18.45,110.7h92.25V18.91c0-5.23,1.69-9.69,5.07-13.38,3.69-3.69,8.15-5.53,13.38-5.53h36.9c4.92,0,9.22,1.84,12.91,5.53,3.69,3.69,5.53,7.99,5.53,12.91v92.25h92.25c4.92,0,9.22,1.84,12.91,5.53,3.69,3.69,5.53,7.99,5.53,12.91v36.9c0,5.23-1.84,9.69-5.53,13.38-3.69,3.38-7.99,5.07-12.91,5.07h-92.25v92.25c0,5.23-1.84,9.69-5.53,13.38-3.69,3.38-7.99,5.07-12.91,5.07h-36.9c-5.23,0-9.69-1.69-13.38-5.07-3.38-3.69-5.07-8.15-5.07-13.38v-92.25H18.45c-5.23,0-9.69-1.69-13.38-5.07-3.38-3.69-5.07-8.15-5.07-13.38v-36.44c0-5.23,1.69-9.69,5.07-13.38,3.69-3.69,8.15-5.53,13.38-5.53"/>
  </g>
</svg>