<?xml version="1.0" encoding="UTF-8"?>
<svg id="Layer_2" data-name="Layer 2" xmlns="http://www.w3.org/2000/svg" viewBox="0 0 295.19 295.19">
  <defs>
    <style>
      .cls-1 {
        fill: #fff;
        stroke-width: 0px;
      }
    </style>
  </defs>
  <g id="Layer_1-2" data-name="Layer 1">
    <path class="cls-1" d="M251.83,42.89C223.24,14.3,188.49,0,147.59,0S71.8,14.3,42.89,42.89C14.3,71.8,0,106.7,0,147.59s14.3,75.64,42.89,104.24c28.9,28.9,63.8,43.36,104.7,43.36s75.64-14.45,104.24-43.36c28.9-28.6,43.36-63.34,43.36-104.24s-14.45-75.8-43.36-104.7ZM178.5,212.17l-26.29-39.2-26.75,39.2h-33.21l41.97-61.34-39.2-58.58h33.21l23.98,35.52,23.52-35.52h33.21l-38.28,58.11,41.51,61.81h-33.67Z"/>
  </g>
</svg>