<?xml version="1.0" encoding="UTF-8"?>
<svg id="Layer_2" data-name="Layer 2" xmlns="http://www.w3.org/2000/svg" viewBox="0 0 285.96 258.29">
  <defs>
    <style>
      .cls-1 {
        fill: #fff;
        stroke-width: 0px;
      }
    </style>
  </defs>
  <g id="Layer_1-2" data-name="Layer 1">
    <g>
      <path class="cls-1" d="M218.62,172.5l2.77-6.46v-73.8l-2.77-6.46c-1.85-1.85-4-2.77-6.46-2.77h-64.57v-46.12l-2.77-6.46c-1.85-1.85-4-2.77-6.46-2.77h-36.9c-2.46,0-4.61.92-6.46,2.77L2.77,122.69c-1.84,1.84-2.77,4-2.77,6.46s.92,4.61,2.77,6.46l92.25,92.25,6.46,2.77h36.9l6.46-2.77,2.77-6.46v-46.12h64.57c2.46,0,4.61-.92,6.46-2.77Z"/>
      <path class="cls-1" d="M280.89,5.53c-3.69-3.69-8.15-5.53-13.38-5.53h-92.25v36.9h73.8v184.49h-73.8v36.9h92.25c5.23,0,9.69-1.69,13.38-5.07,3.38-3.69,5.07-8.15,5.07-13.38V18.91c0-5.23-1.69-9.69-5.07-13.38Z"/>
    </g>
  </g>
</svg>