<?xml version="1.0" encoding="UTF-8"?>
<svg id="Layer_2" data-name="Layer 2" xmlns="http://www.w3.org/2000/svg" viewBox="0 0 276.74 319.89">
  <defs>
    <style>
      .cls-1 {
        fill: #fff;
        stroke-width: 0px;
      }
    </style>
  </defs>
  <g id="Layer_1-2" data-name="Layer 1">
    <path class="cls-1" d="M161.43,103.58l-16.6,19.83,25.83,96.4h78.41c7.38,0,13.84,2.77,19.37,8.3,5.53,5.53,8.3,11.99,8.3,19.37v63.19l-2.77,6.46-6.46,2.77H9.22l-6.46-2.77C.92,315.28,0,313.13,0,310.67v-62.73c0-7.69,2.61-14.14,7.84-19.37v-.46c5.53-5.53,12.15-8.3,19.83-8.3h85.79l-22.14-82.1c-8.3-1.23-16.6-4.15-24.91-8.76-16.3-9.53-26.91-23.52-31.83-41.97-4.92-18.14-2.77-35.67,6.46-52.58,10.15-16.3,24.45-26.91,42.89-31.83,18.45-4.92,35.82-2.77,52.12,6.46,16.6,9.84,27.37,23.83,32.29,41.97,4.92,18.45,2.61,35.98-6.92,52.58"/>
  </g>
</svg>