<?xml version="1.0" encoding="UTF-8"?>
<svg id="Layer_2" data-name="Layer 2" xmlns="http://www.w3.org/2000/svg" viewBox="0 0 313.64 258.29">
  <defs>
    <style>
      .cls-1 {
        fill: #fff;
        stroke-width: 0px;
      }
    </style>
  </defs>
  <g id="Layer_1-2" data-name="Layer 1">
    <path class="cls-1" d="M308.1,125.45c-3.69-3.69-7.99-5.53-12.91-5.53h-73.8V18.45c0-4.92-1.84-9.22-5.53-12.91-3.69-3.69-7.99-5.53-12.91-5.53h-101.47c-5.23,0-9.69,1.85-13.38,5.53-3.38,3.69-5.07,8.15-5.07,13.38v101.01H18.45c-5.23,0-9.69,1.85-13.38,5.53-3.38,3.69-5.07,8.15-5.07,13.38v101.01c0,5.23,1.69,9.69,5.07,13.38,3.69,3.38,8.15,5.07,13.38,5.07h276.74c4.92,0,9.22-1.69,12.91-5.07,3.69-3.69,5.53-8.15,5.53-13.38v-101.47c0-4.92-1.84-9.22-5.53-12.91ZM92.25,221.39h-44.74v-10.61l18.45-18.91,7.84-8.76,2.77-6.92-2.31-5.53-5.53-1.85c-3.69,0-7.38,2.92-11.07,8.76l-11.53-6.92c3.08-4.61,6.46-7.99,10.15-10.15,3.38-2.46,7.84-3.69,13.38-3.69s10.3,1.54,14.3,4.61c4.3,3.69,6.46,8.61,6.46,14.76l-2.77,9.22-9.22,11.53-11.53,11.53h25.37v12.91ZM166.04,110.7h-14.3v-52.12h-13.38v-12.45h27.67v64.57ZM260.6,215.86c-4.61,3.69-10.45,5.54-17.53,5.54s-14.3-2.46-21.68-7.38l6-11.53c6.15,4.3,11.53,6.46,16.14,6.46l7.38-1.85,2.77-6c0-2.77-1.08-4.92-3.23-6.46s-5.07-2.31-8.76-2.31l-8.76,1.38v-10.15l12.45-14.3h-20.29v-12.45h39.67v10.15l-13.38,14.76c5.23.92,9.22,3.08,11.99,6.46,2.77,3.38,4.15,7.38,4.15,11.99,0,6.76-2.31,11.99-6.92,15.68Z"/>
  </g>
</svg>