<?xml version="1.0" encoding="UTF-8"?>
<svg id="Layer_2" data-name="Layer 2" xmlns="http://www.w3.org/2000/svg" viewBox="0 0 221.39 313.18">
  <defs>
    <style>
      .cls-1 {
        fill: #fff;
        stroke-width: 0px;
      }
    </style>
  </defs>
  <g id="Layer_1-2" data-name="Layer 1">
    <path class="cls-1" d="M189.1,31.83C167.58,10.61,141.44,0,110.7,0S52.89,10.61,31.36,31.83C10.45,53.35,0,79.49,0,110.23s10.45,56.42,31.36,77.95c10.15,10.15,21.22,18.14,33.21,23.98v92.71l2.31,6,6,2.31,6-1.85,31.83-31.83,31.83,31.83,6,1.85,6-2.31,2.31-6v-93.17c11.68-5.54,22.45-13.38,32.29-23.52,21.52-21.52,32.29-47.51,32.29-77.95s-10.76-56.89-32.29-78.41ZM149.9,149.44c-10.76,11.07-23.83,16.6-39.2,16.6s-28.9-5.54-39.67-16.6c-10.45-10.76-15.68-23.68-15.68-38.74s5.23-28.44,15.68-39.2c10.76-10.76,23.98-16.14,39.67-16.14s28.44,5.38,39.2,16.14c10.76,10.76,16.14,23.83,16.14,39.2s-5.38,27.98-16.14,38.74Z"/>
  </g>
</svg>