<?xml version="1.0" encoding="UTF-8"?>
<svg id="Layer_2" data-name="Layer 2" xmlns="http://www.w3.org/2000/svg" viewBox="0 0 271.24 286.42">
  <defs>
    <style>
      .cls-1 {
        fill: #fff;
        stroke-width: 0px;
      }
    </style>
  </defs>
  <g id="Layer_1-2" data-name="Layer 1">
    <g>
      <path class="cls-1" d="M33.55,119.92c7.69,0,14.3-2.61,19.83-7.84L117.96,47.51c5.23-5.53,7.84-12.15,7.84-19.83s-2.61-14.14-7.84-19.37c-5.53-5.53-12.15-8.3-19.83-8.3s-14.14,2.77-19.37,8.3L14.18,72.87c-5.53,5.23-8.3,11.68-8.3,19.37s2.77,14.3,8.3,19.83c5.23,5.23,11.69,7.84,19.37,7.84Z"/>
      <path class="cls-1" d="M217.12,112.08c5.23,5.23,11.69,7.84,19.37,7.84s14.3-2.61,19.83-7.84c5.23-5.53,7.84-12.15,7.84-19.83s-2.61-14.14-7.84-19.37L191.76,8.3c-5.53-5.53-12.15-8.3-19.83-8.3s-14.14,2.77-19.37,8.3c-5.53,5.23-8.3,11.68-8.3,19.37s2.77,14.3,8.3,19.83l64.57,64.57Z"/>
      <path class="cls-1" d="M267.4,143.9c-3.08-3.38-7.07-5.07-11.99-5.07H15.57c-5.23,0-9.38,1.69-12.45,5.07-2.77,3.38-3.69,7.23-2.77,11.53l22.6,119.92c.31,3.07,2.15,5.69,5.54,7.84l11.07,3.23h191.87c4,0,7.69-1.08,11.07-3.23l6-7.84,22.6-120.38c.61-4-.62-7.69-3.69-11.07Z"/>
    </g>
  </g>
</svg>