<?xml version="1.0" encoding="UTF-8"?>
<svg id="Layer_2" data-name="Layer 2" xmlns="http://www.w3.org/2000/svg" viewBox="0 0 295.19 295.19">
  <defs>
    <style>
      .cls-1 {
        fill: #fff;
        stroke-width: 0px;
      }
    </style>
  </defs>
  <g id="Layer_1-2" data-name="Layer 1">
    <g>
      <polygon class="cls-1" points="0 110.7 36.9 110.7 36.9 73.8 73.8 110.7 110.7 110.7 110.7 73.8 73.8 36.9 110.7 36.9 110.7 0 0 0 0 110.7"/>
      <polygon class="cls-1" points="184.49 0 184.49 36.9 221.39 36.9 184.49 73.8 184.49 110.7 221.39 110.7 258.29 73.8 258.29 110.7 295.19 110.7 295.19 0 184.49 0"/>
      <polygon class="cls-1" points="36.9 221.39 36.9 184.49 0 184.49 0 295.19 110.7 295.19 110.7 258.29 73.8 258.29 110.7 221.39 110.7 184.49 73.8 184.49 36.9 221.39"/>
      <polygon class="cls-1" points="258.29 221.39 221.39 184.49 184.49 184.49 184.49 221.39 221.39 258.29 184.49 258.29 184.49 295.19 295.19 295.19 295.19 184.49 258.29 184.49 258.29 221.39"/>
    </g>
  </g>
</svg>