<?xml version="1.0" encoding="UTF-8"?>
<svg id="Layer_2" data-name="Layer 2" xmlns="http://www.w3.org/2000/svg" viewBox="0 0 276.74 322.4">
  <defs>
    <style>
      .cls-1 {
        fill: #fff;
        stroke-width: 0px;
      }
    </style>
  </defs>
  <g id="Layer_1-2" data-name="Layer 1">
    <path class="cls-1" d="M268.44,230.62c-5.53-5.54-11.99-8.3-19.37-8.3h-83.48v-89.48c7.69-3.38,14.76-8.3,21.22-14.76,13.53-13.53,20.29-29.83,20.29-48.89s-6.76-35.36-20.29-48.89C173.27,6.76,156.97,0,137.91,0s-35.51,6.76-49.35,20.29c-13.22,13.53-19.83,29.83-19.83,48.89s6.61,35.36,19.83,48.89c6.76,6.46,13.99,11.38,21.68,14.76v89.48H27.67c-7.69,0-14.3,2.77-19.83,8.3v.46c-5.23,5.23-7.84,11.68-7.84,19.37v62.73c0,2.46.92,4.61,2.77,6.46l6.46,2.77h258.29l6.46-2.77,2.77-6.46v-63.19c0-7.38-2.77-13.84-8.3-19.37Z"/>
  </g>
</svg>