<?xml version="1.0" encoding="UTF-8"?>
<svg id="Layer_2" data-name="Layer 2" xmlns="http://www.w3.org/2000/svg" viewBox="0 0 294.84 260.65">
  <defs>
    <style>
      .cls-1 {
        fill: #fff;
        stroke-width: 0px;
      }
    </style>
  </defs>
  <g id="Layer_1-2" data-name="Layer 1">
    <path class="cls-1" d="M68.77,54.48c3.69.31,6.92,1.84,9.69,4.61l46.12,55.35L216.83,5.12c2.15-2.77,5.07-4.46,8.76-5.07,3.69-.31,6.92.77,9.69,3.23l54.89,47.05c2.77,2.15,4.3,5.07,4.61,8.76.31,3.69-.61,7.07-2.77,10.15l-156.82,187.26-6.46,4.15h-7.38l-6.92-4.15L3.28,123.66c-2.46-3.07-3.54-6.3-3.23-9.69.31-4,1.84-7.07,4.61-9.22l54.43-47.05c3.07-2.46,6.3-3.54,9.69-3.23"/>
  </g>
</svg>