<?xml version="1.0" encoding="UTF-8"?>
<svg id="Layer_2" data-name="Layer 2" xmlns="http://www.w3.org/2000/svg" viewBox="0 0 212.17 313.64">
  <defs>
    <style>
      .cls-1 {
        fill: #fff;
        stroke-width: 0px;
      }
    </style>
  </defs>
  <g id="Layer_1-2" data-name="Layer 1">
    <path class="cls-1" d="M203.86,8.3c-5.54-5.54-11.99-8.3-19.37-8.3H27.67c-7.69,0-14.3,2.77-19.83,8.3v.46C2.61,13.99,0,20.45,0,28.13v257.83c0,7.69,2.61,14.3,7.84,19.83l.46.46c5.23,4.92,11.68,7.38,19.37,7.38h156.82c7.38,0,13.84-2.46,19.37-7.38v-.46c5.53-5.54,8.3-12.15,8.3-19.83V27.67c0-7.38-2.77-13.84-8.3-19.37ZM156.82,239.84H55.35V55.35h101.47v184.49Z"/>
  </g>
</svg>