<?xml version="1.0" encoding="UTF-8"?>
<svg id="Layer_2" data-name="Layer 2" xmlns="http://www.w3.org/2000/svg" viewBox="0 0 295.19 295.19">
  <defs>
    <style>
      .cls-1 {
        fill: #fff;
        stroke-width: 0px;
      }
    </style>
  </defs>
  <g id="Layer_1-2" data-name="Layer 1">
    <g>
      <path class="cls-1" d="M251.83,43.36C222.93,14.45,188.18,0,147.59,0S72.26,14.3,43.36,42.89v.46h-.46C14.3,72.26,0,107.01,0,147.59s14.45,75.8,43.36,104.7c28.9,28.6,63.65,42.89,104.24,42.89s75.34-14.3,104.24-42.89c28.9-28.9,43.36-63.8,43.36-104.7s-14.45-75.33-43.36-104.24ZM213.55,213.09h-.46c-18.14,18.14-39.97,27.21-65.49,27.21s-47.35-9.07-65.49-27.21c-18.14-17.83-27.21-39.67-27.21-65.5s9.07-47.35,27.21-65.49c18.14-17.83,39.97-26.75,65.49-26.75s47.51,8.92,65.96,26.75c17.83,18.14,26.75,39.97,26.75,65.49s-8.92,47.66-26.75,65.5Z"/>
      <path class="cls-1" d="M147.59,95.48c-14.76,0-27.21,5.07-37.36,15.22-9.84,10.15-14.76,22.45-14.76,36.9,0,14.45,4.92,26.75,14.76,36.9,10.15,10.45,22.6,15.68,37.36,15.68s26.75-5.23,36.9-15.68c10.15-10.15,15.22-22.45,15.22-36.9,0-14.45-5.07-26.75-15.22-36.9-10.15-10.15-22.45-15.22-36.9-15.22Z"/>
    </g>
  </g>
</svg>