<?xml version="1.0" encoding="UTF-8"?>
<svg id="Layer_2" data-name="Layer 2" xmlns="http://www.w3.org/2000/svg" viewBox="0 0 396.66 221.39">
  <defs>
    <style>
      .cls-1 {
        fill: #fff;
        stroke-width: 0px;
      }
    </style>
  </defs>
  <g id="Layer_1-2" data-name="Layer 1">
    <path class="cls-1" d="M391.12,5.54c-3.69-3.69-7.99-5.54-12.91-5.54H18.45c-5.23,0-9.69,1.85-13.38,5.54C1.69,9.22,0,13.68,0,18.91v184.03c0,5.23,1.69,9.69,5.07,13.38,3.69,3.38,8.15,5.07,13.38,5.07h359.76c4.92,0,9.22-1.69,12.91-5.07,3.69-3.69,5.53-8.15,5.53-13.38V18.45c0-4.92-1.84-9.22-5.53-12.91ZM89.48,132.37c-3.38,2.77-7.84,4.15-13.38,4.15-8.3,0-15.68-2.92-22.14-8.76l6.92-8.76c5.53,4.92,10.61,7.38,15.22,7.38l5.07-1.38,1.84-3.69-1.84-3.69-7.84-2.77c-5.84-1.23-10.15-3.07-12.91-5.53-2.77-2.15-4.15-5.69-4.15-10.61,0-4.92,1.69-8.76,5.07-11.53,3.38-2.46,7.84-3.69,13.38-3.69l10.15,1.38c3.38,1.23,6.46,2.92,9.22,5.07l-6,8.76c-4.61-3.38-9.22-5.07-13.84-5.07l-4.61.92-1.85,3.69,2.31,3.69,9.22,3.23c4.92,1.23,8.76,3.07,11.53,5.53s4.15,6,4.15,10.61-1.84,8.3-5.54,11.07ZM142.52,136.06h-37.82v-51.66h36.9v10.15h-25.37v10.61h23.06v10.15h-23.06v10.61h26.29v10.15ZM186.34,136.06h-33.21v-51.66h11.53v41.51h21.68v10.15ZM232.92,136.06h-37.82v-51.66h36.9v10.15h-25.37v10.61h23.06v10.15h-23.06v10.61h26.29v10.15ZM256.44,121.77c3.07,2.77,6.61,4.15,10.61,4.15,5.84,0,10.45-2.31,13.84-6.92l7.38,7.84c-5.84,6.46-12.76,9.69-20.76,9.69s-14.45-2.46-19.37-7.38c-5.23-4.92-7.84-11.22-7.84-18.91s2.61-14.14,7.84-19.37c5.23-4.92,11.69-7.38,19.37-7.38,8.3,0,15.38,3.23,21.22,9.69l-7.38,7.84c-3.69-4.61-8.15-6.92-13.38-6.92-4.31,0-7.99,1.54-11.07,4.61-3.08,2.77-4.61,6.46-4.61,11.07,0,4.92,1.38,8.92,4.15,11.99ZM333.93,94.55h-14.76v41.51h-11.53v-41.51h-14.76v-10.15h41.05v10.15Z"/>
  </g>
</svg>