<?xml version="1.0" encoding="UTF-8"?>
<svg id="Layer_2" data-name="Layer 2" xmlns="http://www.w3.org/2000/svg" viewBox="0 0 396.66 221.39">
  <defs>
    <style>
      .cls-1 {
        fill: #fff;
        stroke-width: 0px;
      }
    </style>
  </defs>
  <g id="Layer_1-2" data-name="Layer 1">
    <g>
      <path class="cls-1" d="M391.12,5.54l-4.15-3.23-8.76-2.31H18.45c-5.23,0-9.69,1.85-13.38,5.54C1.69,9.22,0,13.68,0,18.91v184.03c0,5.23,1.69,9.69,5.07,13.38,3.69,3.38,8.15,5.07,13.38,5.07h359.76l8.76-1.85,4.15-3.23c3.69-3.69,5.53-8.15,5.53-13.38V18.45c0-4.92-1.84-9.22-5.53-12.91ZM109.31,132.37l-13.38,4.15c-8.3,0-15.68-2.92-22.14-8.76l6.92-8.76c5.54,4.92,10.61,7.38,15.22,7.38l5.07-1.38,1.85-3.69-1.85-3.69-7.84-2.77c-5.84-1.23-10.15-3.07-12.91-5.53-2.77-2.15-4.15-5.69-4.15-10.61s1.69-8.76,5.07-11.53c3.38-2.46,7.84-3.69,13.38-3.69l10.15,1.38,9.22,5.07-6,8.76c-4.61-3.38-9.22-5.07-13.84-5.07l-4.61.92-1.85,3.69,2.31,3.69,9.22,3.23,11.53,5.53c2.77,2.46,4.15,6,4.15,10.61s-1.85,8.3-5.54,11.07ZM160.97,94.55h-14.76v41.51h-11.53v-41.51h-14.76v-10.15h41.05v10.15ZM205.71,136.06l-4.61-11.07h-21.68l-4.61,11.07h-12.45l22.6-51.66h11.07l22.14,51.66h-12.45ZM255.06,136.06l-11.53-16.6h-7.84v16.6h-11.53v-51.66h19.37c7.99,0,13.68,1.38,17.07,4.15s5.07,7.07,5.07,12.91c0,8.3-3.23,13.68-9.69,16.14l12.91,18.45h-13.84ZM314.1,94.55h-14.76v41.51h-11.53v-41.51h-14.76v-10.15h41.05v10.15Z"/>
      <polygon class="cls-1" points="184.03 114.85 196.95 114.85 190.49 99.63 184.03 114.85"/>
      <polygon class="cls-1" points="243.99 94.55 235.69 94.55 235.69 109.77 243.99 109.77 251.83 107.93 254.14 101.47 251.83 95.94 243.99 94.55"/>
    </g>
  </g>
</svg>