<?xml version="1.0" encoding="UTF-8"?>
<svg id="Layer_2" data-name="Layer 2" xmlns="http://www.w3.org/2000/svg" viewBox="0 0 230.62 301.99">
  <defs>
    <style>
      .cls-1 {
        fill: #fff;
        stroke-width: 0px;
      }
    </style>
  </defs>
  <g id="Layer_1-2" data-name="Layer 1">
    <g>
      <path class="cls-1" d="M5.07,6.46C1.69,10.15,0,14.61,0,19.83v257.83c0,5.23,1.69,9.69,5.07,13.38,3.69,3.38,8.15,5.07,13.38,5.07h45.66v-36.9h-27.21V37.82h27.21V.92H18.45c-5.23,0-9.69,1.84-13.38,5.53Z"/>
      <path class="cls-1" d="M101.01,24.91c-4.92.92-9.22,3.54-12.91,7.84-3.38,4.3-5.07,9.07-5.07,14.3v239.38c0,5.23,1.69,9.38,5.07,12.45,3.69,2.77,8,3.69,12.91,2.77l129.61-24.91V0L101.01,24.91ZM142.06,161.89c-3.38,3.38-7.69,5.07-12.91,5.07s-9.53-1.69-12.92-5.07c-3.69-3.69-5.53-8.15-5.53-13.38,0-4.92,1.84-9.22,5.53-12.91,3.69-3.69,8-5.53,12.92-5.53,5.23,0,9.69,1.84,13.38,5.53h-.46c3.69,3.69,5.53,7.99,5.53,12.91,0,5.23-1.85,9.69-5.53,13.38Z"/>
    </g>
  </g>
</svg>