<?xml version="1.0" encoding="UTF-8"?>
<svg id="Layer_2" data-name="Layer 2" xmlns="http://www.w3.org/2000/svg" viewBox="0 0 313.64 258.29">
  <defs>
    <style>
      .cls-1 {
        fill: #fff;
        stroke-width: 0px;
      }
    </style>
  </defs>
  <g id="Layer_1-2" data-name="Layer 1">
    <path class="cls-1" d="M147.59,18.91c0-5.23,1.69-9.69,5.07-13.38,3.69-3.69,8.15-5.53,13.38-5.53h18.45l129.14,129.14-129.14,129.14h-18.45c-5.23,0-9.69-1.69-13.38-5.07-3.38-3.69-5.07-8.15-5.07-13.38v-55.35H18.45c-5.23,0-9.69-1.69-13.38-5.07-3.38-3.69-5.07-8.15-5.07-13.38v-73.34c0-5.23,1.69-9.69,5.07-13.38,3.69-3.69,8.15-5.53,13.38-5.53h129.14V18.91"/>
  </g>
</svg>