<?xml version="1.0" encoding="UTF-8"?>
<svg id="Layer_2" data-name="Layer 2" xmlns="http://www.w3.org/2000/svg" viewBox="0 0 295.19 295.19">
  <defs>
    <style>
      .cls-1 {
        fill: #fff;
        stroke-width: 0px;
      }
    </style>
  </defs>
  <g id="Layer_1-2" data-name="Layer 1">
    <path class="cls-1" d="M283.66,89.02c-7.07-16.6-17.68-31.98-31.83-46.12C223.24,14.3,188.49,0,147.59,0S71.8,14.3,42.89,42.89C14.3,71.8,0,106.7,0,147.59s14.3,75.64,42.89,104.24c28.9,28.9,63.8,43.36,104.7,43.36s75.64-14.45,104.24-43.36c14.14-13.84,24.75-29.06,31.83-45.66,7.69-17.83,11.53-37.36,11.53-58.58s-3.84-40.74-11.53-58.58ZM171.58,206.17c-8.61,7.38-19.68,11.07-33.21,11.07s-27.21-4.77-41.05-14.3l11.07-21.68c11.68,7.99,21.99,11.99,30.9,11.99,5.53,0,10.15-1.23,13.84-3.69,3.38-2.77,5.07-6.76,5.07-11.99,0-4.92-2-8.92-6-11.99-4-3.07-9.69-4.61-17.07-4.61l-16.14,3.69v-20.29l23.52-27.67h-38.28v-23.52h74.72v18.91l-24.91,28.6c9.84,1.85,17.37,6,22.6,12.45,5.53,6.76,8.3,14.45,8.3,23.06,0,12.61-4.46,22.6-13.38,29.98Z"/>
  </g>
</svg>