<?xml version="1.0" encoding="UTF-8"?>
<svg id="Layer_2" data-name="Layer 2" xmlns="http://www.w3.org/2000/svg" viewBox="0 0 276.74 319.89">
  <defs>
    <style>
      .cls-1 {
        fill: #fff;
        stroke-width: 0px;
      }
    </style>
  </defs>
  <g id="Layer_1-2" data-name="Layer 1">
    <path class="cls-1" d="M138.83,9.02C155.74-.2,173.42-2.35,191.87,2.57c18.45,4.92,32.44,15.53,41.97,31.83,9.84,16.91,12.3,34.44,7.38,52.58-4.92,18.45-15.84,32.44-32.75,41.97-7.69,4.61-15.68,7.53-23.98,8.76l-21.68,82.1h86.25c7.38,0,13.84,2.77,19.37,8.3,5.53,5.53,8.3,11.99,8.3,19.37v63.19l-2.77,6.46c-1.84,1.85-4,2.77-6.46,2.77H9.22l-6.46-2.77C.92,315.28,0,313.13,0,310.67v-62.73c0-7.69,2.61-14.14,7.84-19.37v-.46c5.53-5.53,12.15-8.3,19.83-8.3h77.49l25.83-96.4c-6.76-5.23-12.61-11.84-17.53-19.83-8.92-16.6-10.92-34.13-6-52.58,4.92-18.14,15.37-32.13,31.36-41.97"/>
  </g>
</svg>