<?xml version="1.0" encoding="UTF-8"?>
<svg id="Layer_2" data-name="Layer 2" xmlns="http://www.w3.org/2000/svg" viewBox="0 0 368.98 249.06">
  <defs>
    <style>
      .cls-1 {
        fill: #fff;
        stroke-width: 0px;
      }
    </style>
  </defs>
  <g id="Layer_1-2" data-name="Layer 1">
    <path class="cls-1" d="M363.45,70.11c-3.69-3.69-7.99-5.53-12.91-5.53h-147.59V18.45c0-4.92-1.85-9.22-5.53-12.91-3.69-3.69-7.99-5.53-12.91-5.53h-9.22v2.31l-4.15,3.23c-3.38,3.69-5.07,8.15-5.07,13.38v45.66H18.45c-5.23,0-9.69,1.84-13.38,5.53-3.38,3.69-5.07,8.15-5.07,13.38v147.13c0,5.23,1.69,9.69,5.07,13.38,3.69,3.38,8.15,5.07,13.38,5.07h332.09c4.92,0,9.22-1.69,12.91-5.07,3.69-3.69,5.53-8.15,5.53-13.38V83.02c0-4.92-1.85-9.22-5.53-12.91ZM137.91,174.81h-36.44v36.9h-36.9v-36.9H27.67v-36.9h36.9v-36.44h36.9v36.44h36.44v36.9ZM271.2,169.73c-3.69,3.69-7.99,5.54-12.91,5.54-5.23,0-9.69-1.85-13.38-5.54-3.38-3.38-5.07-7.69-5.07-12.91,0-4.92,1.69-9.22,5.07-12.91,3.69-3.69,8.15-5.53,13.38-5.53,4.92,0,9.22,1.84,12.91,5.53,3.69,3.69,5.53,7.99,5.53,12.91,0,5.23-1.85,9.53-5.53,12.91ZM335.78,169.73c-3.69,3.69-7.99,5.54-12.91,5.54-5.23,0-9.69-1.85-13.38-5.54-3.38-3.38-5.07-7.69-5.07-12.91,0-4.92,1.69-9.22,5.07-12.91,3.69-3.69,8.15-5.53,13.38-5.53,4.92,0,9.22,1.84,12.91,5.53,3.69,3.69,5.53,7.99,5.53,12.91,0,5.23-1.85,9.53-5.53,12.91Z"/>
  </g>
</svg>