<?xml version="1.0" encoding="UTF-8"?>
<svg id="Layer_2" data-name="Layer 2" xmlns="http://www.w3.org/2000/svg" viewBox="0 0 258.29 321.02">
  <defs>
    <style>
      .cls-1 {
        fill: #fff;
        stroke-width: 0px;
      }
    </style>
  </defs>
  <g id="Layer_1-2" data-name="Layer 1">
    <g>
      <path class="cls-1" d="M252.75,5.54c-3.69-3.69-7.99-5.54-12.91-5.54H18.45c-5.23,0-9.69,1.85-13.38,5.54C1.69,9.22,0,13.68,0,18.91v173.42c0,35.67,12.45,65.96,37.36,90.86,25.21,25.21,55.66,37.82,91.32,37.82h.46c35.67,0,65.96-12.61,90.86-37.82,25.21-24.91,37.82-55.19,37.82-90.86h.46V18.45c0-4.92-1.84-9.22-5.53-12.91ZM230.62,118.54h-46.58v34.59c0,15.68-5.23,29.21-15.68,40.59l.92-1.38c-11.07,12.91-24.6,19.22-40.59,18.91-15.68.31-29.06-5.84-40.13-18.45-9.84-11.07-14.91-24.29-15.22-39.67v-34.59H27.67V27.67h202.94v90.86Z"/>
      <path class="cls-1" d="M128.68,183.57c7.69,0,14.14-3.08,19.37-9.22,5.54-5.84,8.3-12.91,8.3-21.22v-68.72c0-8.3-2.77-15.37-8.3-21.22-5.23-5.84-11.68-8.76-19.37-8.76s-14.3,2.92-19.83,8.76c-5.23,5.84-7.84,12.91-7.84,21.22v68.72c0,8.3,2.61,15.37,7.84,21.22,5.54,6.15,12.15,9.22,19.83,9.22Z"/>
    </g>
  </g>
</svg>