<?xml version="1.0" encoding="UTF-8"?>
<svg id="Layer_2" data-name="Layer 2" xmlns="http://www.w3.org/2000/svg" viewBox="0 0 258.29 295.19">
  <defs>
    <style>
      .cls-1 {
        fill: #fff;
        stroke-width: 0px;
      }
    </style>
  </defs>
  <g id="Layer_1-2" data-name="Layer 1">
    <path class="cls-1" d="M178.5,113c15.37,6.46,29.37,15.68,41.97,27.67,25.21,24.29,37.82,53.81,37.82,88.56,0,18.45-12.61,33.98-37.82,46.58-24.91,12.91-55.35,19.37-91.32,19.37s-66.11-6.46-91.32-19.37C12.91,263.21.31,247.68,0,229.23c0-34.75,12.61-64.26,37.82-88.56,12.61-11.99,26.6-21.22,41.97-27.67-12.91-12.91-19.37-28.29-19.37-46.12s6.76-34.13,20.29-47.05C93.94,6.61,110.08,0,129.14,0s35.67,6.61,48.89,19.83c13.53,12.91,20.29,28.6,20.29,47.05s-6.61,33.21-19.83,46.12"/>
  </g>
</svg>