<?xml version="1.0" encoding="UTF-8"?>
<svg id="Layer_2" data-name="Layer 2" xmlns="http://www.w3.org/2000/svg" viewBox="0 0 285.49 258.41">
  <defs>
    <style>
      .cls-1 {
        fill: #fff;
        stroke-width: 0px;
      }
    </style>
  </defs>
  <g id="Layer_1-2" data-name="Layer 1">
    <path class="cls-1" d="M261.98,56.8l9.69,17.99.46.92c19.37,38.44,17.68,77.64-5.07,117.61-22.75,41.82-56.73,63.5-101.93,65.03-3.69.31-7.07-.77-10.15-3.23-2.77-2.46-4.3-5.69-4.61-9.69-3.38-22.14-4.77-38.44-4.15-48.89.31-3.69,1.54-6.92,3.69-9.69,2.46-2.77,5.69-4.15,9.69-4.15,18.76-1.54,32.9-10.3,42.43-26.29l-.46.46c9.22-15.37,10.45-30.75,3.69-46.12-8.92-20.91-23.98-31.98-45.2-33.21h-.46c-15.07-.31-27.98,4.92-38.74,15.68,15.07,8.61,25.68,15.68,31.83,21.22,2.46,2.15,4,4.77,4.61,7.84l-.46,9.22-6.46,6.92L22.14,212.69l-10.15,1.38c-3.38-.31-6.3-1.84-8.76-4.61l-3.23-9.22L.46,49.88l1.84-7.84,5.53-5.53.46-.46,6.92-1.84,6.92,1.84,32.29,18.45c11.68-15.68,24.75-27.67,39.2-35.98v-.46C122.84.53,153.28-4.24,184.95,3.76c30.44,7.38,55.66,24.6,75.64,51.66l1.38,1.38"/>
  </g>
</svg>