<?xml version="1.0" encoding="UTF-8"?>
<svg id="Layer_2" data-name="Layer 2" xmlns="http://www.w3.org/2000/svg" viewBox="0 0 350.54 221.39">
  <defs>
    <style>
      .cls-1 {
        fill: #fff;
        stroke-width: 0px;
      }
    </style>
  </defs>
  <g id="Layer_1-2" data-name="Layer 1">
    <g>
      <path class="cls-1" d="M304.41,0H0v221.39h350.54V46.12c0-30.75-15.37-46.12-46.12-46.12ZM195.56,166.5l-20.76-32.29h-14.3v32.29h-21.68v-101.47h35.98c14.76,0,25.37,2.77,31.83,8.3,6.46,4.92,9.69,13.38,9.69,25.37,0,16.3-6.15,26.75-18.45,31.36l23.98,36.44h-26.29Z"/>
      <path class="cls-1" d="M176.19,84.87h-15.68v29.98h15.22c7.38,0,12.3-1.38,14.76-4.15,2.46-2.46,3.69-6.46,3.69-11.99s-1.23-9.22-3.69-11.07l-14.3-2.77Z"/>
    </g>
  </g>
</svg>