<?xml version="1.0" encoding="UTF-8"?>
<svg id="Layer_2" data-name="Layer 2" xmlns="http://www.w3.org/2000/svg" viewBox="0 0 294.73 295.19">
  <defs>
    <style>
      .cls-1 {
        fill: #fff;
        stroke-width: 0px;
      }
    </style>
  </defs>
  <g id="Layer_1-2" data-name="Layer 1">
    <g>
      <path class="cls-1" d="M264.29,74.72l-.46-.46-13.84-11.99-21.22,30.44,8.3,6.92.46.92c13.53,13.53,20.29,29.67,20.29,48.43s-6.76,35.36-20.29,48.89l-.46.46-8.3,6.92,21.22,30.44,13.38-11.53.92-.92c20.29-20.29,30.44-45.05,30.44-74.26s-10.15-53.66-30.44-74.26Z"/>
      <path class="cls-1" d="M166.04,0h-18.45L36.9,110.7H0v73.8h36.9l110.7,110.7h18.45c4.92,0,9.22-1.69,12.91-5.07,3.69-3.69,5.53-8.15,5.53-13.38V18.45c0-4.92-1.84-9.22-5.53-12.91C175.27,1.84,170.96,0,166.04,0Z"/>
    </g>
  </g>
</svg>