<?xml version="1.0" encoding="UTF-8"?>
<svg id="Layer_2" data-name="Layer 2" xmlns="http://www.w3.org/2000/svg" viewBox="0 0 258.29 258.29">
  <defs>
    <style>
      .cls-1 {
        fill: #fff;
        stroke-width: 0px;
      }
    </style>
  </defs>
  <g id="Layer_1-2" data-name="Layer 1">
    <path class="cls-1" d="M159.12,79.79l93.17,93.17c3.69,3.69,5.69,8.15,6,13.38,0,4.92-1.84,9.22-5.53,12.91l-53.04,53.04c-3.69,3.69-8.15,5.69-13.38,6-5.23-.31-9.69-2.31-13.38-6l-93.17-93.17-39.67,39.67c-3.69,3.69-8.15,5.84-13.38,6.46-5.23,0-9.69-1.84-13.38-5.53l-13.38-13.38V0h186.34l13.38,13.38c3.69,3.69,5.53,8.15,5.53,13.38-.31,4.92-2.31,9.22-6,12.91l-40.13,40.13"/>
  </g>
</svg>