<?xml version="1.0" encoding="UTF-8"?>
<svg id="Layer_2" data-name="Layer 2" xmlns="http://www.w3.org/2000/svg" viewBox="0 0 295.19 295.19">
  <defs>
    <style>
      .cls-1 {
        fill: #fff;
        stroke-width: 0px;
      }
    </style>
  </defs>
  <g id="Layer_1-2" data-name="Layer 1">
    <g>
      <path class="cls-1" d="M251.83,42.89C223.24,14.3,188.49,0,147.59,0S71.8,14.3,42.89,42.89C14.3,71.8,0,106.7,0,147.59s14.3,75.64,42.89,104.24c28.9,28.9,63.8,43.36,104.7,43.36s75.64-14.45,104.24-43.36c28.9-28.6,43.36-63.34,43.36-104.24s-14.45-75.8-43.36-104.7ZM194.64,201.1c-6.46,7.38-17.53,11.07-33.21,11.07h-50.74v-119.92h44.74l20.76,3.23,12.45,7.84c5.23,6.15,7.84,13.07,7.84,20.76,0,9.53-2.92,16.45-8.76,20.76l-4.15,3.23-4.15,1.85c7.07,1.54,12.76,4.92,17.07,10.15,4.3,4.92,6.46,11.22,6.46,18.91,0,8.3-2.77,15.68-8.3,22.14Z"/>
      <path class="cls-1" d="M170.19,164.66l-18.45-2.31h-15.22v27.21h17.53l16.6-2.77c4-2.15,6-5.84,6-11.07,0-5.84-2.15-9.53-6.46-11.07Z"/>
      <path class="cls-1" d="M164.66,138.83c3.38-1.84,5.07-5.38,5.07-10.61s-1.54-8.76-4.61-10.61l-16.6-2.31h-11.99v25.83h11.99l16.14-2.31Z"/>
    </g>
  </g>
</svg>