<?xml version="1.0" encoding="UTF-8"?>
<svg id="Layer_2" data-name="Layer 2" xmlns="http://www.w3.org/2000/svg" viewBox="0 0 276.74 239.84">
  <defs>
    <style>
      .cls-1 {
        fill: #fff;
        stroke-width: 0px;
      }
    </style>
  </defs>
  <g id="Layer_1-2" data-name="Layer 1">
    <g>
      <path class="cls-1" d="M273.97,113.46L163.28,2.77c-1.84-1.85-4-2.77-6.46-2.77s-4.61.92-6.46,2.77-2.77,4-2.77,6.46v221.39c0,2.46.92,4.61,2.77,6.46,1.85,1.85,4,2.77,6.46,2.77l6.46-2.77,110.7-110.7,2.77-6.46-2.77-6.46Z"/>
      <path class="cls-1" d="M119.92,0c-2.46,0-4.61.92-6.46,2.77L2.77,113.46c-1.85,1.85-2.77,4-2.77,6.46s.92,4.61,2.77,6.46l110.7,110.7c1.85,1.85,4,2.77,6.46,2.77l6.46-2.77,2.77-6.46V9.22l-2.77-6.46c-1.84-1.85-4-2.77-6.46-2.77Z"/>
    </g>
  </g>
</svg>