<?xml version="1.0" encoding="UTF-8"?>
<svg id="Layer_2" data-name="Layer 2" xmlns="http://www.w3.org/2000/svg" viewBox="0 0 276.83 307.18">
  <defs>
    <style>
      .cls-1 {
        fill: #fff;
        stroke-width: 0px;
      }
    </style>
  </defs>
  <g id="Layer_1-2" data-name="Layer 1">
    <path class="cls-1" d="M275.45,257.37l-46.58-81.18-.46-.46c14.15-19.06,21.22-40.9,21.22-65.49,0-30.75-10.76-56.89-32.29-78.41C195.81,10.61,169.67,0,138.92,0s-57.81,10.61-79.33,31.83c-20.91,21.52-31.36,47.66-31.36,78.41,0,24.6,6.92,46.28,20.76,65.03l-.92.92L1.48,257.37c-1.23,1.85-1.69,3.84-1.38,6l4.61,5.07,6,1.38,43.36-11.53,11.53,43.36,4.61,4.61,6,.92,5.07-3.69,46.58-81.18.92-1.38,10.15.46,9.69-.46.46,1.38,46.58,81.18,5.07,3.69,6-.92,4.61-4.61,11.53-43.36,43.36,11.53,6-1.38,4.61-5.07-1.38-6ZM178.13,149.44c-10.76,11.07-23.83,16.6-39.2,16.6s-28.9-5.54-39.67-16.6c-10.45-10.76-15.68-23.68-15.68-38.74s5.23-28.44,15.68-39.2c10.76-10.76,23.98-16.14,39.67-16.14s28.44,5.38,39.2,16.14c10.76,10.76,16.14,23.83,16.14,39.2s-5.38,27.98-16.14,38.74Z"/>
  </g>
</svg>