<?xml version="1.0" encoding="UTF-8"?>
<svg id="Layer_2" data-name="Layer 2" xmlns="http://www.w3.org/2000/svg" viewBox="0 0 295.19 295.19">
  <defs>
    <style>
      .cls-1 {
        fill: #fff;
        stroke-width: 0px;
      }
    </style>
  </defs>
  <g id="Layer_1-2" data-name="Layer 1">
    <path class="cls-1" d="M289.65,5.53c-3.69-3.69-7.99-5.53-12.91-5.53H18.45c-5.23,0-9.69,1.84-13.38,5.53C1.69,9.22,0,13.68,0,18.91v257.83c0,5.23,1.69,9.69,5.07,13.38,3.69,3.38,8.15,5.07,13.38,5.07h258.29c4.92,0,9.22-1.69,12.91-5.07,3.69-3.69,5.53-8.15,5.53-13.38V18.45c0-4.92-1.85-9.22-5.53-12.91ZM63.65,267.51H27.21v-46.12h36.44v46.12ZM63.65,166.04H27.21v-46.12h36.44v46.12ZM63.65,73.8H27.21V27.67h36.44v46.12ZM202.48,267.51h-110.7v-101.47h110.7v101.47ZM202.48,138.37h-110.7V27.67h110.7v110.7ZM266.59,267.51h-36.44v-46.12h36.44v46.12ZM266.59,166.04h-36.44v-46.12h36.44v46.12ZM266.59,73.8h-36.44V27.67h36.44v46.12Z"/>
  </g>
</svg>